<?xml version="1.0" encoding="UTF-8"?>
<!DOCTYPE svg PUBLIC "-//W3C//DTD SVG 1.1//EN" "http://www.w3.org/Graphics/SVG/1.1/DTD/svg11.dtd">
<!-- Creator: CorelDRAW X8 -->
<svg xmlns="http://www.w3.org/2000/svg" xml:space="preserve" width="116.827mm" height="17.8487mm" version="1.1" style="shape-rendering:geometricPrecision; text-rendering:geometricPrecision; image-rendering:optimizeQuality; fill-rule:evenodd; clip-rule:evenodd"
viewBox="0 0 6708 1025"
 xmlns:xlink="http://www.w3.org/1999/xlink">
 <defs>
  <style type="text/css">
   <![CDATA[
    .fil0 {fill:#005452;fill-rule:nonzero}
    .fil1 {fill:url(#id0)}
   ]]>
  </style>
  <linearGradient id="id0" gradientUnits="userSpaceOnUse" x1="772.899" y1="1024.95" x2="807.871" y2="-0.051674">
   <stop offset="0" style="stop-opacity:1; stop-color:#00C864"/>
   <stop offset="1" style="stop-opacity:1; stop-color:#AAF464"/>
  </linearGradient>
 </defs>
 <g id="Capa_x0020_1">
  <metadata id="CorelCorpID_0Corel-Layer"/>
  <path class="fil0" d="M2554 721l-53 1 -142 0 -52 -1 -51 161c-13,4 -33,5 -58,5 -25,0 -45,-3 -60,-9l-5 -6 229 -688c22,-4 48,-6 77,-6 30,0 53,2 72,7l226 688c-20,11 -43,16 -68,16 -26,0 -44,-5 -56,-15 -11,-9 -20,-28 -29,-54l-30 -99zm-216 -104l48 -1 91 0c2,0 9,0 20,0 11,0 20,1 25,1l-35 -115c-19,-60 -37,-125 -55,-195l-5 0c-8,42 -23,97 -44,166l-45 144z"/>
  <path id="1" class="fil0" d="M2796 434c3,-12 8,-24 17,-38 8,-13 17,-23 26,-29 53,9 89,39 107,91 27,-60 71,-91 132,-91 15,0 35,3 59,8 0,44 -10,83 -31,118 -10,-3 -25,-5 -46,-6 -41,0 -75,22 -100,66l0 328c-19,4 -40,5 -62,5 -23,0 -44,-1 -64,-5l0 -342c0,-50 -13,-85 -38,-105z"/>
  <path id="2" class="fil0" d="M3465 365c57,0 101,24 132,70 30,47 46,111 46,192 0,82 -22,146 -66,192 -44,47 -101,70 -171,70 -71,0 -135,-11 -193,-33l0 -719 7 -8 47 0c25,0 43,6 53,18 11,12 16,32 16,61l0 203c40,-30 82,-46 129,-46zm-34 103c-35,0 -67,16 -95,48l0 272c22,6 45,9 70,9 34,0 60,-15 79,-45 19,-30 29,-73 29,-129 0,-102 -28,-153 -83,-155z"/>
  <path id="3" class="fil0" d="M4102 418c48,49 73,119 73,210 0,91 -25,161 -73,209 -39,39 -90,58 -154,58 -63,0 -114,-19 -153,-58 -49,-48 -73,-118 -73,-209 0,-91 24,-161 73,-210 39,-38 90,-58 153,-58 64,0 115,20 154,58zm-154 38c-64,0 -96,57 -96,172 0,114 32,171 96,171 65,0 97,-57 97,-171 0,-115 -32,-172 -97,-172z"/>
  <path id="4" class="fil0" d="M4257 434c3,-12 9,-24 17,-38 9,-13 17,-23 26,-29 53,9 89,39 108,91 27,-60 71,-91 131,-91 16,0 36,3 60,8 0,44 -11,83 -31,118 -10,-3 -26,-5 -46,-6 -42,0 -75,22 -100,66l0 328c-19,4 -40,5 -62,5 -23,0 -44,-1 -65,-5l0 -342c0,-50 -12,-85 -38,-105z"/>
  <path id="5" class="fil0" d="M4836 474l0 407c-19,4 -39,5 -62,5 -22,0 -44,-1 -64,-5l0 -360c0,-37 -15,-56 -46,-56l-12 0c-4,-11 -5,-26 -5,-44 0,-17 1,-33 5,-45 24,-3 49,-5 74,-5l17 0c29,0 52,10 68,28 17,18 25,43 25,75zm-148 -191c-6,-16 -10,-33 -10,-51 0,-18 4,-35 10,-51 18,-9 40,-14 66,-14 26,0 47,5 63,14 7,16 10,33 10,51 0,18 -3,35 -10,51 -16,9 -38,14 -66,14 -28,0 -49,-5 -63,-14z"/>
  <path id="6" class="fil0" d="M4958 767l149 -201c15,-21 42,-53 82,-98l-3 -5c-38,5 -82,8 -132,8l-97 0c-3,-11 -4,-25 -4,-40 0,-16 2,-35 7,-56l347 0c12,34 18,58 18,72 0,14 -5,27 -14,40l-151 202c-23,33 -49,65 -77,97l3 4c35,-3 65,-5 89,-5l43 0c48,0 83,-5 105,-15 8,22 12,39 12,53 0,39 -25,58 -74,58l-306 0c-10,-31 -15,-53 -15,-67 0,-14 6,-30 18,-47z"/>
  <path id="7" class="fil0" d="M5845 824c-4,11 -10,24 -18,36 -9,13 -17,22 -26,29 -43,-4 -74,-24 -93,-59 -45,44 -94,65 -146,65 -53,0 -92,-15 -119,-46 -26,-30 -40,-66 -40,-106 0,-57 19,-100 56,-129 37,-29 85,-43 143,-43 31,0 60,1 88,4l0 -31c0,-54 -25,-81 -77,-81 -37,0 -89,13 -157,37 -19,-21 -31,-51 -33,-91 73,-30 147,-46 220,-46 51,0 93,15 125,43 32,29 48,72 48,130l0 208c0,38 10,64 29,80zm-257 -26c36,0 70,-16 102,-49l0 -91c-23,-2 -49,-4 -77,-4 -28,0 -49,8 -64,22 -14,14 -21,32 -21,54 0,22 5,39 16,51 11,11 26,17 44,17z"/>
  <path id="8" class="fil0" d="M6214 373c4,14 5,30 5,47 0,17 -1,32 -5,45l-124 -2 0 278c0,31 14,46 44,46l65 0c7,21 10,39 10,54 0,16 -1,28 -3,36 -43,6 -83,9 -121,9 -79,0 -119,-40 -119,-119l0 -303 -76 1c-4,-13 -6,-28 -6,-45 0,-17 2,-33 6,-47l76 3 0 -78c0,-29 5,-49 15,-61 11,-12 28,-18 54,-18l49 0 6 7 0 150 124 -3z"/>
  <path id="9" class="fil0" d="M6697 669l-286 0c3,40 12,71 28,93 16,22 44,33 84,33 40,0 85,-12 134,-35 19,18 31,44 36,77 -54,39 -120,58 -196,58 -77,0 -132,-24 -165,-74 -34,-50 -50,-114 -50,-193 0,-79 18,-144 55,-193 37,-50 89,-75 158,-75 68,0 121,21 158,62 36,41 55,93 55,156 0,31 -4,61 -11,91zm-197 -217c-56,0 -85,42 -90,127l178 0 0 -12c0,-35 -7,-62 -21,-83 -15,-21 -37,-32 -67,-32z"/>
  <path class="fil1" d="M623 870c0,-41 -18,-72 -50,-98 -26,-21 -64,-37 -97,-34 -12,0 -23,-9 -24,-21 -1,-12 8,-22 20,-23 44,-4 94,17 128,44 8,6 16,13 23,21l1 -307c0,-43 -19,-81 -52,-108 -24,-20 -59,-37 -91,-34 -12,1 -23,-8 -24,-20 -1,-13 9,-23 21,-24 42,-3 90,17 122,44 44,36 68,86 68,142l-1 187c7,-8 15,-15 23,-22 35,-29 78,-44 113,-44 4,0 7,0 10,0 12,1 21,12 20,24 -1,12 -11,21 -24,20 -2,0 -4,0 -6,0 -26,0 -58,12 -85,34 -27,22 -47,54 -51,95 0,180 260,166 282,3l0 -200c-6,-68 -73,-136 -143,-130 -12,1 -22,-8 -23,-20 -1,-12 8,-23 20,-24 43,-3 90,17 123,44 8,8 17,16 25,25 5,-37 20,-70 44,-99 0,-47 7,-105 -30,-141 -19,-17 -43,-24 -68,-22 -12,1 -22,-8 -23,-20 -1,-13 8,-23 20,-24 37,-3 74,9 101,35 39,37 43,82 43,132 46,-31 104,-46 158,-34 12,2 19,14 16,26 -2,12 -14,19 -26,16 -45,-10 -93,6 -129,33 -40,30 -65,75 -65,125l1 79 0 187 0 0c10,112 223,105 244,-5l0 -77c-3,-41 -24,-74 -51,-96 -24,-20 -59,-37 -91,-34 -12,1 -23,-8 -24,-20 -1,-12 8,-23 20,-24 43,-3 91,17 123,44 26,21 47,50 59,85 9,-13 20,-24 32,-34 32,-27 80,-47 123,-44 12,1 21,12 20,24 -1,12 -12,21 -24,20 -32,-2 -67,14 -91,34 -22,18 -47,41 -47,73 -3,156 363,68 284,-174 -30,-92 -134,-158 -230,-111 124,-178 -99,-353 -223,-246 -61,-238 -378,-166 -402,7 -142,-147 -459,-39 -414,221 -166,-57 -274,41 -298,173 -15,76 29,174 94,214 61,38 197,51 197,-49 1,-59 -43,-130 -111,-124 -12,1 -23,-8 -23,-20 -1,-12 8,-23 20,-24 45,-3 89,19 117,54 9,-46 34,-82 65,-108 32,-27 79,-47 122,-43 12,0 21,11 20,23 0,12 -11,21 -23,20 -32,-2 -67,14 -92,34 -32,27 -51,66 -51,109l0 223c1,237 285,194 285,8z"/>
 </g>
</svg>
